# xmcd CD database file
#
# Track frame offsets:
#	150
#	22010
#	43380
#	65635
#	88757
#	114872
#	132330
#	162722
#	186865
#	217085
#	238270
#	259717
#
# Disc length: 3607 seconds
#
# Revision: 1
# Processed by: cddbd v1.5PL3 Copyright (c) Steve Scherf et al.
# Submitted via: CDex 1.50
#
DISCID=ba0e150c
DTITLE=THE CHECKERS - OOPS!
DYEAR=1990
DGENRE=JPop
TTITLE0=ACID RAIN
TTITLE1=SEE YOU YESTERDAY
TTITLE2=M-3
TTITLE3=危険なNO.5
TTITLE4=GOLD RUSH
TTITLE5=ONE MORE GLASS OF RED WINE
TTITLE6=100Vのペンギン
TTITLE7=CALL UP PAPER
TTITLE8=KISS
TTITLE9=1週間の悪夢
TTITLE10=眠れるように
TTITLE11=初恋
EXTD=YEAR: 1990
EXTT0=
EXTT1=
EXTT2=
EXTT3=
EXTT4=
EXTT5=
EXTT6=
EXTT7=
EXTT8=
EXTT9=
EXTT10=
EXTT11=
PLAYORDER=
